<svg width="945" height="530" viewBox="0 0 945 530" fill="none" xmlns="http://www.w3.org/2000/svg">
<path d="M132.156 128.401V401H82.7589V128.401H132.156ZM217.778 281.349V401H169.661V196.459H216.863V231.403H219.241C223.876 219.938 231.133 210.851 241.013 204.143C251.014 197.313 263.699 193.898 279.067 193.898C293.215 193.898 305.534 196.886 316.023 202.862C326.513 208.839 334.624 217.621 340.356 229.208C346.211 240.673 349.138 254.577 349.138 270.921V401H301.021V278.422C301.021 264.761 297.484 254.089 290.41 246.405C283.336 238.599 273.578 234.696 261.138 234.696C252.722 234.696 245.221 236.526 238.634 240.185C232.17 243.844 227.047 249.149 223.266 256.102C219.607 262.932 217.778 271.348 217.778 281.349Z" fill="#8B1E2D"/>
<path d="M380.423 401L425.429 128.401H450.31L408.963 378.68H538.859L535.017 401H380.423ZM786.211 196.459L782.918 217.133H682.477L685.953 196.459H786.211ZM683.209 401L722.178 166.638C724.007 155.539 728.093 146.269 734.436 138.829C740.778 131.389 748.34 125.717 757.122 121.814C766.026 117.789 775.112 115.777 784.382 115.777C790.724 115.899 795.847 116.448 799.75 117.424C803.653 118.399 806.702 119.375 808.897 120.351L798.835 141.024C797.006 140.415 794.871 139.805 792.432 139.195C789.992 138.585 786.821 138.219 782.918 138.097C772.673 138.219 764.257 141.207 757.671 147.062C751.084 152.794 746.816 161.027 744.864 171.76L706.993 401H683.209ZM902.386 196.459L898.91 217.133H801.579L804.872 196.459H902.386ZM843.293 147.794H867.076L833.962 347.578C832.498 356.116 832.803 362.824 834.877 367.703C837.072 372.581 840.365 375.996 844.756 377.948C849.147 379.899 854.026 380.875 859.392 380.875C862.564 380.997 865.247 380.814 867.442 380.326C869.76 379.838 871.772 379.412 873.48 379.046L875.309 400.451C872.748 401.427 869.638 402.281 865.979 403.012C862.442 403.744 858.234 404.049 853.355 403.927C844.695 403.927 836.645 402.037 829.205 398.256C821.887 394.475 816.277 388.803 812.374 381.241C808.593 373.557 807.617 364.227 809.446 353.249L843.293 147.794Z" fill="black"/>
<path d="M632 198H609L575.5 401.5H598.5L632 198Z" fill="black"/>
<path d="M585 183.157L631.577 126.91L656.423 190" stroke="black" stroke-width="17"/>
</svg>
